<svg id="Calque_1" data-name="Calque 1" xmlns="http://www.w3.org/2000/svg" viewBox="0 0 139.21 150"><defs><style>.cls-1{fill:#0f99d6;}.cls-2{fill:#c9c806;}.cls-2,.cls-5{fill-rule:evenodd;}.cls-3{fill:#edd9b4;}.cls-4{fill:#dcc5a1;}.cls-5{fill:#bc9f82;}.cls-6{fill:#fff;}.cls-7{fill:#d53229;}.cls-8{fill:#cb3029;}.cls-9{fill:#a92723;}.cls-10{fill:#342215;}.cls-11{fill:#1d75bb;}</style></defs><g id="iconfinder-9-avatar-2754584_120518" data-name="iconfinder-9-avatar-2754584 120518"><path id="Tracé_32" data-name="Tracé 32" class="cls-1" d="M76.73,184.46l-.07.07,13.13,20.35,8.9-8.1h0l2.77-2.51.13.13,11.56,10.48,13.13-20.35-.07-.07c9.42,6,21.68,9.39,32.1,11.71a14.54,14.54,0,0,1,2.16.65,69.6,69.6,0,1,0-118,0,20.61,20.61,0,0,1,2.16-.65C55.05,193.85,67.34,190.5,76.73,184.46Z" transform="translate(-31.89 -79.46)"/><path id="Tracé_33" data-name="Tracé 33" class="cls-2" d="M57.73,164.5c-5.68-58.39,10.35-85,43.67-85s51.13,30.2,43,85c-24.93,14.61-65.13,12.19-86.64,0" transform="translate(-31.89 -79.46)"/><path id="Tracé_34" data-name="Tracé 34" class="cls-3" d="M101.47,135.53v60.06c5.19-.61,10-5.64,14.23-11.13V149.62C115.69,140.24,108.57,135.53,101.47,135.53Z" transform="translate(-31.89 -79.46)"/><path id="Tracé_35" data-name="Tracé 35" class="cls-4" d="M87.24,149.66V184.5c4.87,8.87,9.68,11.67,14.23,11.12v-60.1C94.37,135.53,87.24,140.24,87.24,149.66Z" transform="translate(-31.89 -79.46)"/><path id="Tracé_36" data-name="Tracé 36" class="cls-5" d="M115.69,148.24v23.32c-5.38,4.19-10.58,6.58-14.22,6.58s-8.84-2.35-14.23-6.58V148.24c0-18.81,28.45-18.81,28.45,0" transform="translate(-31.89 -79.46)"/><rect id="Ellipse_3" data-name="Ellipse 3" class="cls-6" x="69.58" y="114.81"/><g id="Groupe_5" data-name="Groupe 5"><g id="Groupe_4" data-name="Groupe 4"><path id="Tracé_37" data-name="Tracé 37" class="cls-4" d="M101.37,85.72c-25.61,0-37.64,22.84-36.32,42.61a4.94,4.94,0,0,0-4.65-.87c-3,1.29-3.61,6.49-1.38,11.65s6.42,8.29,9.38,7a3.65,3.65,0,0,0,1.33-1c8,16.35,23.67,27.19,31.64,27.19h0Z" transform="translate(-31.89 -79.46)"/><path id="Tracé_38" data-name="Tracé 38" class="cls-3" d="M142.53,127.46c-1.45-.61-3.19-.19-4.84,1,1.39-19.84-10.64-42.74-36.32-42.74v86.61c8,0,23.71-10.9,31.74-27.35a3.84,3.84,0,0,0,1.46,1.13c3,1.29,7.19-1.87,9.38-7S145.53,128.75,142.53,127.46Z" transform="translate(-31.89 -79.46)"/></g><path id="Tracé_39" data-name="Tracé 39" class="cls-2" d="M121,101.11c15,9.55,15.84,22.35,16.45,32.26,6.74-8.39,7.32-38.07-16.45-32.26" transform="translate(-31.89 -79.46)"/><path id="Tracé_40" data-name="Tracé 40" class="cls-2" d="M82.53,101.11c-15,9.55-15.84,22.35-16.45,32.26C59.34,125,58.76,95.3,82.53,101.11" transform="translate(-31.89 -79.46)"/><path id="Tracé_41" data-name="Tracé 41" class="cls-2" d="M63.4,110c1.33-42.68,75.62-38.68,76,0a146.49,146.49,0,0,1-26.55,3.39,97.35,97.35,0,0,0-3.58-15c-1,2.94-1.71,9.39-2,15.13-5.64.13-11.29,0-16.77-.23-.33-5.64-1-11.77-2-14.64A96.38,96.38,0,0,0,85,113a144.74,144.74,0,0,1-21.54-3" transform="translate(-31.89 -79.46)"/></g><g id="Groupe_7" data-name="Groupe 7"><g id="Groupe_6" data-name="Groupe 6"><path id="Tracé_42" data-name="Tracé 42" class="cls-7" d="M105.53,156.3s.16,2.58-4.25,2.58c-1.29,0-4.2-.55-4.2-2.51a16.69,16.69,0,0,0,8.45-.07" transform="translate(-31.89 -79.46)"/><path id="Tracé_43" data-name="Tracé 43" class="cls-8" d="M103,155.24a7.05,7.05,0,0,1,2.55,1.06,16.57,16.57,0,0,1-8.42.07s-.07,0-.07,0c.87-.36,2-1.1,2.87-1,.46,0,1,.39,1.42.39.62,0,1-.55,1.65-.45" transform="translate(-31.89 -79.46)"/><path id="Tracé_44" data-name="Tracé 44" class="cls-9" d="M95.66,156a14.54,14.54,0,0,0,11.16-.06.07.07,0,0,0,0-.1.07.07,0,0,0-.08,0c-3.87,1.22-7.13,1-11.1.19,0,0,0,0,0,0" transform="translate(-31.89 -79.46)"/></g><path id="Tracé_45" data-name="Tracé 45" class="cls-10" d="M86,129.4a4.35,4.35,0,1,1-3.77,4.87,3.31,3.31,0,0,1,0-.55A4.09,4.09,0,0,1,86,129.4" transform="translate(-31.89 -79.46)"/><path id="Tracé_46" data-name="Tracé 46" class="cls-10" d="M117,129.4a4.36,4.36,0,1,1-3.77,4.87,4.93,4.93,0,0,1,0-.55,4.08,4.08,0,0,1,3.8-4.32" transform="translate(-31.89 -79.46)"/></g><path id="Tracé_47" data-name="Tracé 47" class="cls-6" d="M101.6,194.4l-.13-.13-2.78,2.51,2.78-2.51Z" transform="translate(-31.89 -79.46)"/><path id="Tracé_48" data-name="Tracé 48" class="cls-11" d="M98.69,229.4V196.78l-8.9,8.1L76.66,184.53l.07-.07c-9.42,6-21.68,9.39-32.1,11.71a14.54,14.54,0,0,0-2.16.65A69.6,69.6,0,0,0,98.69,229.4Z" transform="translate(-31.89 -79.46)"/><path id="Tracé_49" data-name="Tracé 49" class="cls-11" d="M126.21,184.46l.07.07-13.13,20.35L101.6,194.4l2.64,2.39V229.4a69.62,69.62,0,0,0,56.23-32.58,20.61,20.61,0,0,0-2.16-.65C147.89,193.85,135.6,190.5,126.21,184.46Z" transform="translate(-31.89 -79.46)"/><path id="Tracé_50" data-name="Tracé 50" class="cls-6" d="M126.21,184.46l-10.51-9.64-14.23,19.45h0L87.24,174.82l-10.51,9.64-.07.07,13.13,20.35,8.9-8.1V229.4c.9,0,1.84.06,2.77.06h0c.94,0,1.84,0,2.78-.06V196.78l8.9,8.1,13.13-20.35Z" transform="translate(-31.89 -79.46)"/><path id="Tracé_51" data-name="Tracé 51" class="cls-6" d="M98.69,196.78" transform="translate(-31.89 -79.46)"/></g></svg>