<svg id="logo" xmlns="http://www.w3.org/2000/svg" viewBox="0 0 227.3 281.94"><defs><style>.cls-1{fill:#fff;}</style></defs><path id="piece_1" data-name="piece 1" class="cls-1" d="M231.91,101.44,257.59,164a52,52,0,0,0-11.36,7.14C234.77,141.87,225.71,118,225.71,118h-.64L181.66,225.81H268l-11.63-29.23a43.26,43.26,0,0,1,10.61-9.7c3,7.24,29.89,72.78,29.89,72.78-7.38-2.16-16.73-4.61-17.05-4.89-.66-1.54-6.57-16.24-6.57-16.24H176.88l-30.37,75.54H131.24l87-212.63Z" transform="translate(-131.24 -101.44)"/><path id="piece_2" data-name="piece 2" class="cls-1" d="M319.22,314.07H303.79l-13-32.23c6.73,1.66,15.92,4.62,17.33,5.14C311.9,296,319.22,314.07,319.22,314.07Z" transform="translate(-131.24 -101.44)"/><path id="piece_3" data-name="piece 3" class="cls-1" d="M228.83,356.59v15.27s6,3.81,22.59,7.47,22.75,4.29,31.17,4,35.38.35,55.9-16S366,313.57,349,291.79c-8-11.58-21.55-16.54-21.55-16.54C308,268,293.08,264,293.08,264s-23.76-7-29.42-9.54A45,45,0,0,1,250,245.15c-16-.3-17,0-17,0a28.59,28.59,0,0,0,3.44,5.29,47.55,47.55,0,0,0,21.15,16.06,247.13,247.13,0,0,0,33.24,10.42c9.14,2.08,29,9.13,33.07,11.61A44,44,0,0,1,338.49,302c4.51,7,5.14,15.67,5.32,21.31S343,349.23,328,359.61s-38.91,10.93-44.45,10.66-19-1.64-29.26-4.45S237.66,361.19,228.83,356.59Z" transform="translate(-131.24 -101.44)"/><path id="piece_4" data-name="piece 4" class="cls-1" d="M351,189.45s-13.26-6-16.62-7.24-11.05-3.49-16.7-4.85-18.12-2.09-21.39-2.23-29.32.58-40.79,12.73-13,23.44-13.23,31.29c-9.48-.3-14.34,0-14.34,0S226.08,196,247,178.47s44.39-15.65,50.18-16.06S323,163.59,337,168.3s14,5.88,14,5.88Z" transform="translate(-131.24 -101.44)"/></svg>